<?xml version="1.0" encoding="utf-8"?>
<!DOCTYPE svg PUBLIC "-//W3C//DTD SVG 1.1//EN" "http://www.w3.org/Graphics/SVG/1.1/DTD/svg11.dtd">
<svg version="1.1" id="图形" xmlns="http://www.w3.org/2000/svg" xmlns:xlink="http://www.w3.org/1999/xlink" x="0px" y="0px" width="1024px" height="1024px" viewBox="0 0 1024 1024" enable-background="new 0 0 1024 1024" xml:space="preserve">
  <path fill="#272636" d="M943.168532 553.335822l-72.561619 59.265802c-7.413853 6.054903-18.434861 4.943592-24.489764-2.470261L428.494633 98.810838 158.918941 318.990516c-7.413853 6.054903-18.433838 4.943592-24.488741-2.470261l-59.265802-72.562643c-6.054903-7.413853-4.943592-18.434861 2.470261-24.489764l279.674701-228.427526c0.852414-1.167592 1.846044-2.25639 3.01466-3.211135l72.563666-59.265802c7.413853-6.054903 18.433838-4.943592 24.488741 2.470261l488.264413 597.811388C951.694719 536.260935 950.583408 547.28092 943.168532 553.335822z" transform="translate(0, 812) scale(1, -1)"/>
</svg>
